<?xml version="1.0" encoding="UTF-8" standalone="no"?><!DOCTYPE svg PUBLIC "-//W3C//DTD SVG 1.1//EN" "http://www.w3.org/Graphics/SVG/1.1/DTD/svg11.dtd"><svg width="100%" height="100%" viewBox="0 0 335 65" version="1.1" xmlns="http://www.w3.org/2000/svg" xmlns:xlink="http://www.w3.org/1999/xlink" xml:space="preserve" xmlns:serif="http://www.serif.com/" style="fill-rule:evenodd;clip-rule:evenodd;stroke-linejoin:round;stroke-miterlimit:2;"><path id="SvgjsG3850" d="M64.684,16.243l0,-0.144l0,0.144l-18.543,-16.243l-46.141,6.9l4.6,37.013l1.797,-0.287l4.384,12.146l2.228,-0.79l5.606,9.702l41.541,-23.07l4.025,-23.071l0.503,-2.3Zm-13.08,-1.869c1.868,-0.287 3.665,1.078 3.953,2.947c0.287,1.869 -1.078,3.665 -2.947,3.953c-1.941,0.287 -3.666,-1.078 -3.953,-2.947c-0.287,-1.94 1.078,-3.665 2.947,-3.953Zm-39.386,38.452l-3.45,-9.559l42.117,-6.253l8.121,-12.146l-5.031,13.727l-41.757,14.231Zm45.854,-12.722l-38.595,21.418l-4.24,-7.331l40.463,-13.871l4.313,-11.859l-1.941,11.643Z" style="fill:#222;fill-rule:nonzero;"/><path id="SvgjsG3851" d="M113.392,14.973l-16.634,29.519l16.839,0l0,6.417l-28.749,0l16.633,-29.519l-15.709,0l0,-6.417l27.62,0Zm12.577,0l0,35.936l-7.495,0l0,-35.936l7.495,0Zm33.42,0l-16.633,29.519l16.839,0l0,6.417l-28.749,0l16.633,-29.519l-15.709,0l0,-6.417l27.619,0Zm12.578,0l0,35.936l-7.495,0l0,-35.936l7.495,0Z" style="fill:#222;fill-rule:nonzero;"/><path id="SvgjsG3852" d="M191.125,50.861c-3.328,0 -6.512,-1.254 -8.586,-3.087c-2.17,-1.882 -3.569,-4.39 -3.859,-6.85l3.473,-0.965c0.386,2.075 1.448,3.811 3.184,5.258c1.688,1.447 3.618,2.171 5.788,2.171c2.026,0 3.907,-0.483 5.403,-1.544c1.495,-1.013 2.46,-2.749 2.46,-4.872c0,-2.46 -1.303,-4.051 -2.943,-5.016c-1.157,-0.675 -2.17,-0.965 -3.328,-1.206l-4.631,-0.917c-0.964,-0.192 -1.977,-0.53 -3.087,-1.012c-1.109,-0.531 -2.074,-1.158 -2.894,-1.978c-1.64,-1.592 -2.46,-3.618 -2.46,-6.078c0,-1.929 0.531,-3.666 1.592,-5.161c1.061,-1.544 2.412,-2.653 4.1,-3.473c1.688,-0.772 3.473,-1.158 5.451,-1.158c7.573,0 10.901,4.679 11.625,8.442l-3.377,1.061c-0.579,-2.509 -2.846,-6.078 -8.297,-6.078c-3.762,-0.096 -7.428,2.556 -7.38,6.222c0,2.702 1.689,4.872 5.113,5.548l4.438,0.868c2.991,0.579 5.306,1.592 6.85,3.087c1.061,0.965 1.833,2.074 2.315,3.232c0.482,1.206 0.723,2.267 0.723,3.231c0.049,6.175 -5.161,10.419 -11.673,10.275Zm30.582,-32.029l0,31.691l-3.666,0l0,-31.691l-11.77,0l0,-3.473l27.205,0l0,3.473l-11.769,0Zm50.503,14.037c0,3.328 -0.772,6.367 -2.267,9.116c-1.544,2.75 -3.666,4.92 -6.367,6.512c-2.75,1.592 -5.74,2.412 -9.117,2.412c-2.46,0 -4.775,-0.482 -6.994,-1.399c-2.171,-0.916 -4.052,-2.17 -5.596,-3.811c-1.543,-1.543 -2.749,-3.424 -3.665,-5.643c-0.869,-2.219 -1.351,-4.534 -1.351,-6.994c0,-3.329 0.772,-6.367 2.315,-9.117c1.496,-2.749 3.618,-4.968 6.367,-6.56c2.702,-1.592 5.74,-2.364 9.069,-2.364c2.46,0 4.775,0.435 6.994,1.351c2.171,0.965 4.052,2.219 5.595,3.762c1.544,1.64 2.798,3.522 3.666,5.692c0.917,2.219 1.351,4.534 1.351,7.043Zm-3.811,0.193c0,-3.956 -1.447,-7.622 -3.859,-10.275c-2.411,-2.653 -6.029,-4.341 -10.081,-4.341c-2.605,0 -4.968,0.676 -7.091,1.93c-2.122,1.35 -3.762,3.087 -4.92,5.257c-1.157,2.219 -1.736,4.631 -1.736,7.236c0,3.907 1.447,7.621 3.859,10.226c2.411,2.653 6.029,4.341 10.033,4.341c2.604,0 4.968,-0.675 7.09,-1.978c2.171,-1.254 3.811,-3.039 4.969,-5.209c1.157,-2.171 1.736,-4.583 1.736,-7.187Zm36.852,17.461l-4.486,0l-10.418,-14.23l-7.139,0l0,14.23l-3.715,0l0,-35.164l12.204,0c4.148,0 7.477,1.158 9.406,3.087c1.93,1.93 2.943,4.341 2.943,7.187c0,5.933 -4.438,9.358 -9.648,10.033l10.853,14.857Zm-22.043,-31.691l0,14.085l8.151,0c3.088,0 5.499,-0.868 6.898,-2.267c1.351,-1.351 2.026,-3.039 2.026,-4.92c0,-3.473 -2.122,-6.898 -8.827,-6.898l-8.248,0Zm28.603,31.691l0,-35.164l21.996,0l0,3.425l-18.281,0l0,12.155l16.738,0l0,3.425l-16.738,0l0,12.734l18.474,0l0,3.425l-22.189,0Z" style="fill:#222;fill-rule:nonzero;"/></svg>